<svg viewBox="0 0 720 960" height='960' width='720' xmlns="http://www.w3.org/2000/svg" stroke="#000000" stroke-width="1"><path fill="#CCCCCC" stroke="none" d="M262 399L432 399L432 669L103 669L103 485L262 484Z"/><g fill="#6DC5D1"><path d="M88 55h151v128H88zM279 119h113v64H279zM312 87h47v32H312zM568 55h73v199H568zM448 264h128v56H448zM208 200h120v56H208zM328 264h88v64H328zM432 183h120v56H432zM87 272h177v96H87zM64 224h48v39H64zM88 399h134v72H88zM472 399h128v64H472zM471 479h129v136H471zM464 639h160v65H464zM639 640h65v64H639zM128 735h143v104H128zM311 669h97v50H311zM32 855h86v72H32zM7 887h17v71H7zM24 935h40v22H24zM175 855h64v48H175zM135 855h32v48H135zM135 911h56v24H135zM544 823h63v48H544zM544 879h48v24H544zM624 823h63v24H624zM463 719h65v48H463zM464 775h47v24H464zM544 719h64v23H544zM257 845h230v16H257zM256 864h230v23H256zM256 894h230v15H256zM488 893h14v18H488zM432 135h63v25H432zM407 79h72v40H407zM479 79h49v25H479zM504 104h24v24H504zM520 786L529 808L632 765L622 743ZM600 888L608 910L713 869L704 847ZM559 327H648V391H559zM432 328H504V392H432V368H439V352H432z"/><path d="M632 633h33v18H632z"/><circle cx="236" cy="420" r="4"/></g><path fill="none" d="M128 55V183M88 151H216M128 55V183M88 151H216M88 71H128M128 87H88M87 103H128M127 119H87M88 135H127M128 55V183M88 151H216M88 71H128M128 87H88M87 103H128M127 119H87M88 135H127M168 151V183M215 182V151M568 95H642M641 136H568M568 176H641M641 215H568M319 119V182M336 118V150M352 118V150M367 151V182M343 151V183M376 151H392M376 151V167M391 167H376M280 151H367M504 79V103M431 79V119M463 135V159M464 183V239M432 215H552M298 200V256M267 256V199M237 199V256M208 227H297M298 241H328M328 296H416M368 295V264M560 359H648M632 360V328M591 327V359M448 279H495M495 279V264M528 264V279M528 279H576M552 280V319M471 319V279M175 400V472M175 440H88M471 407H503M504 415H519M560 415H576M575 447H560M472 447H520M472 431H600M575 399V463M559 463V399M519 415V463M503 463V400M487 448V463M472 503H599M599 527H472M472 542H528M472 566H544M544 575H567M567 590H544M544 599H567M567 599V615M544 614V527M528 479V566M551 478V503M567 575V591M584 823V871M584 847H607M121 271V304M143 340V367M182 339V368M207 303V271M168 272V304M121 304H206M143 340H183M464 664H592M511 680H536M512 664V703M536 703V640M575 640V703M591 704V640M248 735V839M200 816V839M256 759V735M152 735V815M128 759H191M191 759V735M224 735V759M223 759H271M128 815H248M88 855V879M88 879H119M120 866H88M312 687H343M343 687V719M344 703H408M8 48V247M32 246V47M32 47H696M696 0V327M688 327V46M464 360H503M464 328V392M447 392V328M439 352H447M439 368H448M448 343H463M448 376H464M488 376V391M488 376H504M504 344H488M488 344V328M504 743V767M503 743H527M527 735H504M504 735V719M534 780l9 22M549 774l9 22M564 768l9 22M578 762l9 22M593 756l9 22M608 750l9 22M614 883l9 22M629 877l9 22M644 871l9 22M659 865l9 22M674 859l9 22M689 853l9 22M455 861V845M424 861V845M392 861V845M359 861V845M320 861V845M288 861V845M333 865V887M358 865V887M384 865V887M410 865V887M280 894V909M304 894V909M328 894V909M351 894V909M375 894V909M399 894V909M428 894V909M455 894V909M486 894V909M479 775V799M495 800V776M575 879V903M560 903V880M639 824V847M655 848V823M672 823V847M559 719V744M575 743V720M591 719V743M648 264H600M600 264V320M599 320H656M687 129L647 264zM663 247L687 169zM656 320L695 623z"/><path fill="#6DC5D1" d="M594 55h29v199H594zM495 183H520V239H495z"/><g font-family="Arial Narrow" fill="#000000" stroke="none" font-size="10"><text x="113" y="67">H</text><text x="112" y="83">G</text><text x="103" y="100">SR4</text><text x="103" y="116">SR3</text><text x="100" y="131">SR2</text><text x="99" y="147">SR 1</text><text x="142" y="171">D-1</text><text x="173" y="103">Library</text><text x="186" y="165">D-2</text><text x="174" y="177">Acad. Ctr.</text><text x="97" y="166">Acorn</text><text x="96" y="177">Lounge</text><text x="322" y="101">WL</text><text x="322" y="112">Books</text><text x="294" y="134">F-1</text><text x="294" y="171">F-6</text><text x="362" y="134">F-2</text><text x="379" y="163">F-3</text><text x="327" y="166">F-5</text><text x="326" y="177">Lab</text><text x="350" y="177">Lab</text><text x="350" y="165">F-4</text><text x="414" y="93">W.L.</text><text x="413" y="102">staff</text><text x="412" y="112">room</text><text x="446" y="92">World</text><text x="437" y="103">Languages</text><text x="444" y="114">Offices</text><text x="488" y="95">H-1</text><text x="510" y="95">H-2</text><text x="511" y="119">H-3</text><text x="442" y="152">H-5</text><text x="474" y="151">H-4</text><text x="440" y="203">G-1</text><text x="470" y="204">G-2</text><text x="527" y="203">G-3</text><text x="500" y="210">G-5</text><text x="500" y="220">Lab</text><text x="527" y="231">G-4</text><text x="471" y="231">G-6</text><text x="439" y="231">G-7</text><text x="573" y="81">J10</text><text x="573" y="123">J-8</text><text x="574" y="162">J-6</text><text x="573" y="201">J-4</text><text x="573" y="241">J-2</text><text x="625" y="80">J-9</text><text x="626" y="120">J-7</text><text x="626" y="160">J-5</text><text x="625" y="200">J-3</text><text x="625" y="238">J-1</text><text x="70" y="235">College &amp;</text><text x="73" y="246">Career</text><text x="73" y="257">Center</text><text x="216" y="217">C-1</text><text x="245" y="216">C-2</text><text x="275" y="217">C-3</text><text x="303" y="224">C-4</text><text x="303" y="252">C-5</text><text x="274" y="245">C-6</text><text x="244" y="245">C-7</text><text x="215" y="245">C-8</text><text x="92" y="320">Main Office and</text><text x="92" y="331">Administration</text><text x="209" y="320">Counselors</text><text x="128" y="285">Copy</text><text x="128" y="296">Center</text><text x="175" y="285">Nurse</text><text x="187" y="357">Attendance</text><text x="144" y="349">Registrar /</text><text x="144" y="360">Acad Tech</text><text x="340" y="283">E-1</text><text x="378" y="283">E-2</text><text x="337" y="308">E3 Work Experience</text><text x="343" y="320">&amp;&#160;&#160;&#160;Tech Office</text><text x="136" y="390">Bat Cave</text><text x="228" y="438">Flag</text><text x="316" y="361">Quad</text><text x="463" y="275">K-1</text><text x="544" y="275">K-2</text><text x="471" y="297">Social Studies, Special</text><text x="475" y="308">Ed &amp; Science Office</text><text x="451" y="339">B</text><text x="453" y="387">B</text><text x="469" y="385">FOS</text><text x="491" y="387">A</text><text x="491" y="339">A</text><text x="473" y="353">K-15</text><text x="474" y="374">K-14</text><text x="580" y="373">K-5 FOODS</text><text x="568" y="342">K-3</text><text x="562" y="352">ID/Fab</text><text x="599" y="342">K-4</text><text x="599" y="353">ELL</text><text x="100" y="423">Wellness Center</text><text x="106" y="459">Staff Lounge</text><text x="474" y="407">A</text><text x="477" y="459">A</text><text x="492" y="460">B</text><text x="491" y="407">B</text><text x="481" y="418">K6</text><text x="479" y="427">SAO</text><text x="478" y="445">K-13</text><text x="506" y="427">A</text><text x="506" y="443">A</text><text x="505" y="458">B</text><text x="523" y="451">K-12</text><text x="522" y="418">K-8</text><text x="564" y="411">B</text><text x="564" y="427">A</text><text x="564" y="443">A</text><text x="564" y="458">B</text><text x="576" y="445">K-10</text><text x="577" y="418">K-9</text><text x="491" y="495">L-1</text><text x="529" y="495">Prep</text><text x="566" y="495">L-2</text><text x="555" y="514">L-3</text><text x="543" y="525">Auto shop</text><text x="479" y="525">Auto class</text><text x="491" y="514">L-8</text><text x="473" y="540">L-7 Broadcast</text><text x="474" y="558">L-6 CTE Lab</text><text x="577" y="556">L-4</text><text x="560" y="563">Machine</text><text x="571" y="571">Shop</text><text x="549" y="582">L-9</text><text x="549" y="590">Lab</text><text x="544" y="610">Office</text><text x="499" y="595">L-5</text><text x="650" y="686">Custodians</text><text x="640" y="646">Carts</text><text x="599" y="675">M-3</text><text x="547" y="657">M-2</text><text x="547" y="687">M4</text><text x="494" y="657">M-1</text><text x="478" y="688">M-5</text><text x="513" y="675">Stor.</text><text x="515" y="695">Off.</text><text x="350" y="715">Little Theater</text><text x="318" y="699">SP-1 &amp;</text><text x="319" y="710">Green</text><text x="319" y="716">Room</text><text x="321" y="742">Amphitheater</text><text x="434" y="775">1st</text><text x="415" y="787">Floor</text><text x="465" y="734">N100</text><text x="464" y="745">English</text><text x="464" y="756">Offices</text><text x="504" y="753">N115</text><text x="509" y="763">Lab</text><text x="505" y="731">Lobby</text><text x="518" y="891">2nd</text><text x="518" y="901">Floor</text><text x="586" y="868">Lab</text><text x="585" y="858">N215</text><text x="441" y="940">FIELDS</text><text x="196" y="884">Pool</text><text x="158" y="746">Snack</text><text x="162" y="756">Bar</text><text x="223" y="746">Athletic</text><text x="223" y="756">Trainer</text><text x="178" y="792">Bow Gym</text><text x="145" y="831">Wrestling</text><text x="203" y="830">Classroom</text><text x="140" y="869">Pool</text><text x="137" y="880">House</text><text x="142" y="922">Basketball</text><text x="149" y="933">Courts</text><text x="87" y="926">Fitness</text><text x="87" y="904">Dance</text><text x="53" y="876">Titan</text><text x="52" y="887">Gym</text><text x="88" y="865">Snack Bar</text><text x="88" y="877">AD Office</text><text x="30" y="951">Courts</text><text x="259" y="873">V17 Choral</text><text x="259" y="885">Classroom</text><text x="415" y="875">V13 Instrumental</text><text x="414" y="886">Classroom</text><text x="544" y="837">N200</text><text x="545" y="848">Math</text><text x="545" y="860">Offices</text><text x="544" y="740">101 102 103 104</text><text x="464" y="796">114 113 112</text><text x="545" y="900">214 213 212</text><text x="625" y="845">201 202 203 204</text><text x="9" y="350">Visitor</text><text x="10" y="430">Staff</text><text x="9" y="526">Staff</text><text x="10" y="638">Student</text><text x="10" y="742">Student</text><text x="10" y="755">Parking</text><text x="9" y="650">Parking</text><text x="7" y="537">Parking</text><text x="7" y="440">Parking</text><text x="7" y="361">Parking</text><text x="259" y="855">V7</text><text x="296" y="855">V 6</text><text x="333" y="856">V5</text><text x="368" y="857">V4</text><text x="398" y="858">V3</text><text x="429" y="857">V2</text><text x="462" y="857">V1</text><text x="339" y="880">V 14</text><text x="362" y="879">V15</text><text x="390" y="878">V12</text><text x="258" y="906">V-26&#160;&#160;&#160;V-25&#160;&#160;&#160;V-24&#160;&#160;&#160;V-23&#160;&#160;&#160;V-22&#160;&#160;&#160;V-21&#160;&#160;&#160;V-20</text><text x="434" y="906">V-19</text><text x="460" y="905">V-18</text><text x="611" y="208" transform="rotate(-90 611 208)">Science Prep</text><text x="204" y="451" transform="rotate(-90 204 451)">Cafeteria</text><text x="644" y="352" transform="rotate(-90 644 352)">ELL</text><text x="541" y="566" transform="rotate(-90 541 566)">Storage</text><text x="588" y="700" transform="rotate(-90 588 700)">Studio</text><text x="588" y="662" transform="rotate(-90 588 662)">Office</text><text x="265" y="830" transform="rotate(-90 265 830)">Boys</text><text x="147" y="811" transform="rotate(-90 147 811)">Girls</text><text x="20" y="949" transform="rotate(-90 20 949)">Tennis</text><text x="168" y="333">*</text><text x="169" y="320">*</text><text x="194" y="300">*</text><text x="435" y="349">**</text><text x="436" y="388">**</text><text x="618" y="923">Restroom</text><text x="617" y="933">Gender neutral</text><text x="616" y="941">Restroom</text><text x="25" y="240" transform="rotate(-90 25 240)">GUNN ENTRANCE</text><text x="680" y="130" transform="rotate(-90 680 130)">MIRANDA</text><text x="709" y="177" transform="rotate(-90 709 177)">FOOTHILL BLVD</text><text x="548" y="729">N&#160;&#160;&#160;&#160;N&#160;&#160;&#160;&#160;N&#160;&#160;&#160;&#160;N</text><text x="467" y="785">N&#160;&#160;&#160;&#160;N&#160;&#160;&#160;&#160;N</text><text x="628" y="834">N&#160;&#160;&#160;&#160;N&#160;&#160;&#160;&#160;N&#160;&#160;&#160;&#160;N</text><text x="548" y="889">N&#160;&#160;&#160;&#160;N&#160;&#160;&#160;&#160;N</text><text x="529" y="806" transform="rotate(-23 529 806)">111 110 109 108 107 106 105</text><text x="608" y="907" transform="rotate(-22 608 907)">211 210 209 208 207 206 205</text><text x="531" y="792" transform="rotate(-23 531 792)">N&#160;&#160;&#160;&#160;N&#160;&#160;&#160;&#160;N&#160;&#160;&#160;&#160;N&#160;&#160;&#160;&#160;N&#160;&#160;&#160;&#160;N&#160;&#160;&#160;&#160;N</text><text x="610" y="895" transform="rotate(-22 610 895)">N&#160;&#160;&#160;&#160;N&#160;&#160;&#160;&#160;N&#160;&#160;&#160;&#160;N&#160;&#160;&#160;&#160;N&#160;&#160;&#160;&#160;N&#160;&#160;&#160;&#160;N</text><g font-size="24"><text x="120" y="459">*</text><text x="218" y="176">*</text><text x="339" y="146">*</text><text x="415" y="138">*</text><text x="600" y="257">*</text><text x="552" y="563">*</text><text x="496" y="748">*</text><text x="576" y="853">*</text><text x="129" y="754">*</text><text x="598" y="934">*</text><text x="144" y="906">**</text><text x="488" y="912">**</text><text x="594" y="949">**</text><text x="321" y="146">**</text></g><text x="228" y="543" font-size="17">Construction</text></g><path fill="#7D1725" stroke="none" d="M20 842L12 847L20 851L20 848L248 848L248 845L20 846z"/><path fill="#000000" stroke="none" d="M455 943L455 951L452 951L455 959L459 951L456 951L456 943z"/><path stroke="#941100" fill="none" d="M252 842L508 841L506 914L251 914z"/><path stroke="#000000" fill="none" d="M591 911L672 911L672 943L592 943z"/></svg>
