<svg viewBox="0 0 1122 1476" width="1122" height="1476" xmlns="http://www.w3.org/2000/svg" xmlns:xlink="http://www.w3.org/1999/xlink">
  <image xlink:href="gunnmap.png" x="0" y="0" height="1476px" width="1122px"/>
  <path stroke="rgba(255,0,0,0.3)" fill="none" stroke-width="3"
    d="M402.4 703.5L416.4 729.5L352.4 757.5L342.4 733.5z
       M318.4 735.5L344.4 747.5L278.4 893.5L250.4 881.5z
       M406.4 741.5L418.4 769.5L388.4 787.5L404.4 821.5L388.4 829.5L362.4 819.5L342.4 775.5z
       M370.4 837.5L384.4 865.5L296.4 909.5L284.4 879.5z
       M452.4 867.5L468.4 905.5L376.4 951.5L358.4 913.5z
       M450.4 475.5L526.4 631.5L664.4 563.5L588.4 409.5z
       M462.4 961.5L512.4 1063.5L438.4 1101.5L390.4 997.5z
       M526.4 1089.5L544.4 1127.5L468.4 1165.5L450.4 1127.5z
       M568.4 1125.5L584.4 1161.5L548.4 1179.5L528.4 1143.5z
       M490.4 1161.5L510.4 1199.5L462.4 1223.5L442.4 1185.5z
       M570.4 1177.5L586.4 1213.5L512.4 1249.5L494.4 1213.5z
       M556.4 1268.5L614.4 1387.5L540.4 1423.5L480.4 1305.5z
       M584.4 1252.5L662.4 1217.5L676.4 1250.5L604.4 1289.5z
       M766.4 1217.5L692.4 1252.5L708.4 1294.5L784.4 1257.5z
       M674.4 1283.5L632.4 1302.5L646.4 1327.5L688.4 1306.5z
       M628.4 1342.5L654.4 1389.5L724.4 1350.5L712.4 1328.5L662.4 1351.5L650.4 1332.5z
       M750.4 1170.5L768.4 1209.5L842.4 1172.5L826.4 1134.5z
       M706.4 1148.5L670.4 1164.5L688.4 1203.5L726.4 1184.5z
       M796.4 1242.5L808.4 1268.5L842.4 1256.5L860.4 1290.5L886.4 1280.5L888.4 1284.5L926.4 1264.5L906.4 1220.5L874.4 1231.5L854.4 1192.5L816.4 1209.5L822.4 1225.5z
       M800.4 963.5L724.4 998.5L744.4 1039.5L822.4 999.5z
       M762.4 1078.5L842.4 1040.5L860.4 1079.5L778.4 1118.5z
       M602.4 219.5L638.4 299.5L564.4 337.5L520.4 260.5z
       M424.4 154.5L480.4 266.5L418.4 296.5L362.4 184.5z
       M680.4 74.5L750.4 248.5L642.4 293.5L604.4 215.5L534.4 231.5L506.4 141.5z
       M490.4 329.5L442.4 353.5L480.4 433.5L530.4 407.5z
       M506.4 317.5L518.4 311.5L560.4 393.5L546.4 399.5z
       M810.4 408.5L668.4 476.5L654.4 444.5L794.4 376.5z
       M784.4 338.5L800.4 370.5L646.4 448.5L628.4 413.5z
       M766.4 281.5L782.4 310.5L620.4 390.5L608.4 362.5z
       M600.4 898.5L532.4 933.5L464.4 794.5L532.4 764.5z"/>
</svg>
