<svg version="1" xmlns="http://www.w3.org/2000/svg" width="933.333" height="933.333" viewBox="0 0 700.000000 700.000000"><path d="M330.9.4c-.2.2-4.7.7-9.9 1.1-5.2.3-9.7.8-10 1-.3.1-3.4.5-7 .9-3.6.3-10.1 1.3-14.4 2.1-4.4.8-9.1 1.7-10.5 2-4.9.9-6.7 1.3-18.6 4.4-6.6 1.8-13.8 3.9-16 4.7-2.2.9-4.7 1.7-5.5 1.9-12.3 2.6-49.5 19.8-71 32.9-10.2 6.1-33.6 22.5-37.2 25.9-.7.6-5.1 4.4-9.8 8.4-12.9 10.8-33.1 32-44.4 46.3-3.6 4.7-7.4 9.4-8.2 10.5-3.9 4.8-20.4 30.7-24.4 38-2.3 4.4-4.6 8.4-5 9-1.7 2.3-11.6 24.9-16 36.7-6.2 16.2-12 35.5-14.4 47.8-.2 1.4-1.1 5.6-1.9 9.5-.8 3.8-1.8 9.2-2.1 12-.4 2.7-1.1 7.7-1.6 11-3 19.4-3.3 66.5-.5 83.9.2 1.1.6 4.1.9 6.6.3 2.5.8 5.4 1 6.5.2 1.1.7 4.2 1 7 1.3 8.8 6.7 30.6 11.1 44.5 32 101 106.5 181.1 204.7 220 21.6 8.6 52 17.3 68.3 19.6 2.8.3 5.9.8 7 1 12.8 2.5 31.2 3.8 53 3.8 17.1 0 36.9-.9 39.6-1.8.8-.3 3.9-.8 6.9-1.1 11.4-1.3 13.9-1.7 27.3-4.6 7.5-1.6 18.3-4.3 24-6 5.6-1.7 10.9-3.2 11.7-3.4 9.8-2.3 47-18.6 60-26.3 1.9-1.1 5.3-3 7.5-4.2 9.2-5 37.3-24.4 44.1-30.5.7-.5 4-3.5 7.5-6.5 10.5-9 33.1-31.9 41.1-41.7 32.7-39.6 56.2-85.7 69.3-135.8 3.3-12.8 6.9-30.6 8-39.5.3-2.5.8-6.5 1.1-8.9 1.5-11.2 2.1-27.7 2.3-66.9l.2-42.2H350v140l98.9.2 98.9.3-3.7 9c-13.8 34-36.3 63.5-66.1 86.7-14.1 10.9-33.7 22.2-48.1 27.8-3 1.1-6.3 2.5-7.4 3-5.4 2.4-26.6 8.2-35 9.5-15.6 2.5-26.7 3.2-42 2.9-9.3-.2-17.9-.5-19-.7-1.1-.2-4.5-.7-7.5-1.1-33.7-4.6-72.8-21.8-100.7-44.2-15.1-12.1-30.9-29.4-42.5-46.5-6-8.9-15.7-26.5-18.4-33.4-9.5-24.1-13.2-38.1-16.1-60.6-1.7-13.5-.4-49.1 2.4-61.4.2-1.1.6-3.1.9-4.5 1.3-6.5 4.9-19.3 7.6-27 20.4-57 62.9-101.4 118.9-124.3 10.9-4.5 25.1-8.9 26.9-8.5.3.1 1.4-.3 2.5-.9 1.1-.6 4.2-1.4 6.9-1.7 2.7-.4 5.3-.9 5.6-1.1.7-.4 2.6-.7 14-2.1 9.6-1.2 12.3-1.2 194.3-1.3L700 140V-.1L515.6 0C414.2.1 331.1.3 330.9.4z"/></svg>