<svg
  xmlns="http://www.w3.org/2000/svg"
  xmlns:xlink="http://www.w3.org/1999/xlink"
  viewBox="0 0 200 200"
  fill="none"
>
  <path
    id="back"
    d="M 0 0 H 200 V 200 H 0 z"
    fill="#000"
  />
  <path
    id="question-mark"
    d="M 106.031 119.024 L 86.781 119.024 L 86.781 119.024 Q 86.781 108.497
    89.337 102.256 L 89.337 102.256 L 89.337 102.256 Q 91.894 96.015 98.699
    89.961 L 98.699 89.961 L 98.699 89.961 Q 105.504 83.908 107.76 80.111 L
    107.76 80.111 L 107.76 80.111 Q 110.016 76.313 110.016 72.103 L 110.016
    72.103 L 110.016 72.103 Q 110.016 59.395 98.286 59.395 L 98.286 59.395 L
    98.286 59.395 Q 92.721 59.395 89.375 62.816 L 89.375 62.816 L 89.375 62.816
    Q 86.029 66.237 85.878 72.253 L 85.878 72.253 L 64.072 72.253 L 64.072
    72.253 Q 64.222 57.891 73.358 49.77 L 73.358 49.77 L 73.358 49.77 Q 82.495
    41.648 98.286 41.648 L 98.286 41.648 L 98.286 41.648 Q 114.227 41.648
    123.025 49.356 L 123.025 49.356 L 123.025 49.356 Q 131.823 57.063 131.823
    71.125 L 131.823 71.125 L 131.823 71.125 Q 131.823 77.517 128.965 83.194 L
    128.965 83.194 L 128.965 83.194 Q 126.108 88.871 118.964 95.789 L 118.964
    95.789 L 112.874 101.579 L 112.874 101.579 Q 107.159 107.068 106.332 114.438
    L 106.332 114.438 L 106.031 119.024 L 106.031 119.024 Z M 84.6 142.109 L
    84.6 142.109 L 84.6 142.109 Q 84.6 137.071 88.021 133.8 L 88.021 133.8 L
    88.021 133.8 Q 91.443 130.529 96.782 130.529 L 96.782 130.529 L 96.782
    130.529 Q 102.121 130.529 105.542 133.8 L 105.542 133.8 L 105.542 133.8 Q
    108.963 137.071 108.963 142.109 L 108.963 142.109 L 108.963 142.109 Q
    108.963 147.072 105.617 150.306 L 105.617 150.306 L 105.617 150.306 Q
    102.271 153.539 96.782 153.539 L 96.782 153.539 L 96.782 153.539 Q 91.292
    153.539 87.946 150.306 L 87.946 150.306 L 87.946 150.306 Q 84.6 147.072 84.6
    142.109 z"
    fill="rgba(0, 0, 0, 0.3)"
  />
  <style type="text/css">
    /* <![CDATA[ */
    #back {
      animation: rainbow 20s linear infinite;
    }
    @keyframes rainbow {
      0% {
        fill: #FF9800;
      }
      14.29% {
        fill: #f44336;
      }
      28.57% {
        fill: #9C27B0;
      }
      42.86% {
        fill: #2196F3;
      }
      57.14% {
        fill: #009688;
      }
      71.43% {
        fill: #4CAF50;
      }
      85.71% {
        fill: #FFEB3B;
      }
      100% {
        fill: #FF9800;
      }
    }
    #question-mark {
      animation: spin 5s infinite cubic-bezier(0.9, 0, 0.1, 1);
      transform-origin: center;
    }
    @keyframes spin {
      0% {
        transform: rotate(0deg);
      }
      20% {
        transform: rotate(0deg);
      }
      100% {
        transform: rotate(-360deg);
      }
    }
    /* ]]> */
  </style>
</svg>
