<?xml version="1.0" encoding="UTF-8" standalone="no"?>
<!-- Created with Inkscape (http://www.inkscape.org/) -->

<svg
   xmlns:dc="http://purl.org/dc/elements/1.1/"
   xmlns:cc="http://creativecommons.org/ns#"
   xmlns:rdf="http://www.w3.org/1999/02/22-rdf-syntax-ns#"
   xmlns:svg="http://www.w3.org/2000/svg"
   xmlns="http://www.w3.org/2000/svg"
   xmlns:xlink="http://www.w3.org/1999/xlink"
   xmlns:sodipodi="http://sodipodi.sourceforge.net/DTD/sodipodi-0.dtd"
   xmlns:inkscape="http://www.inkscape.org/namespaces/inkscape"
   width="210mm"
   height="297mm"
   viewBox="0 0 210 297"
   version="1.1"
   id="svg1571"
   sodipodi:docname="orbiitlogo1.svg"
   inkscape:version="0.92.2 5c3e80d, 2017-08-06">
  <defs
     id="defs1565">
    <linearGradient
       inkscape:collect="always"
       id="linearGradient10016">
      <stop
         style="stop-color:#000000;stop-opacity:0.50196081"
         offset="0"
         id="stop10012" />
      <stop
         style="stop-color:#000000;stop-opacity:0.25"
         offset="1"
         id="stop10014" />
    </linearGradient>
    <inkscape:perspective
       id="perspective5194"
       inkscape:persp3d-origin="372.04724 : 350.7874 : 1"
       inkscape:vp_z="744.09449 : 526.1811 : 1"
       inkscape:vp_y="0 : 1000 : 0"
       inkscape:vp_x="0 : 526.1811 : 1"
       sodipodi:type="inkscape:persp3d" />
    <linearGradient
       inkscape:collect="always"
       xlink:href="#linearGradient10016"
       id="linearGradient10018"
       x1="108.65911"
       y1="90.196396"
       x2="108.69838"
       y2="140.19637"
       gradientUnits="userSpaceOnUse"
       gradientTransform="translate(-3.6981385)" />
  </defs>
  <sodipodi:namedview
     id="base"
     pagecolor="#ffffff"
     bordercolor="#666666"
     borderopacity="1.0"
     inkscape:pageopacity="0.0"
     inkscape:pageshadow="2"
     inkscape:zoom="0.70710678"
     inkscape:cx="309.6822"
     inkscape:cy="539.55783"
     inkscape:document-units="mm"
     inkscape:current-layer="layer1"
     showgrid="false"
     inkscape:snap-others="true"
     inkscape:object-nodes="true"
     inkscape:object-paths="true"
     inkscape:snap-intersection-paths="true"
     inkscape:snap-smooth-nodes="true"
     inkscape:window-width="1920"
     inkscape:window-height="992"
     inkscape:window-x="0"
     inkscape:window-y="1"
     inkscape:window-maximized="1" />
  <metadata
     id="metadata1568">
    <rdf:RDF>
      <cc:Work
         rdf:about="">
        <dc:format>image/svg+xml</dc:format>
        <dc:type
           rdf:resource="http://purl.org/dc/dcmitype/StillImage" />
      </cc:Work>
    </rdf:RDF>
  </metadata>
  <g
     inkscape:label="Layer 1"
     inkscape:groupmode="layer"
     id="layer1">
    <path
       inkscape:connector-curvature="0"
       style="opacity:0.49300005;fill:#000000;fill-opacity:1;stroke:none;stroke-width:2.25777769;stroke-linecap:round;stroke-linejoin:round;stroke-miterlimit:4;stroke-dasharray:none;stroke-dashoffset:0;stroke-opacity:1"
       d="m 81.118096,204.97947 26.810244,-0.0217 a 13.405554,13.405554 0 0 0 5.7e-4,-0.0103 l -26.810769,0.0207 a 13.405554,13.405554 0 0 0 0,0.0114 z"
       id="path5443" />
    <path
       inkscape:connector-curvature="0"
       style="opacity:0.56300001;fill:none;fill-opacity:1;stroke:none;stroke-width:2.05985713;stroke-linecap:round;stroke-linejoin:round;stroke-miterlimit:4;stroke-dasharray:none;stroke-dashoffset:0;stroke-opacity:1"
       d="m 308.5395,217.12411 v 64.87563 a 26.81111,26.81111 0 0 1 0.12713,-2.67685 26.81111,26.81111 0 0 1 0.39325,-2.65099 26.81111,26.81111 0 0 1 0.65577,-2.59882 26.81111,26.81111 0 0 1 0.9121,-2.51973 26.81111,26.81111 0 0 1 1.15962,-2.41638 26.81111,26.81111 0 0 1 1.39475,-2.28876 26.81111,26.81111 0 0 1 1.61591,-2.13786 26.81111,26.81111 0 0 1 1.82161,-1.96577 26.81111,26.81111 0 0 1 2.00866,-1.77406 26.81111,26.81111 0 0 1 2.17556,-1.56474 26.81111,26.81111 0 0 1 2.32133,-1.33946 26.81111,26.81111 0 0 1 2.44324,-1.10175 26.81111,26.81111 0 0 1 2.54092,-0.85164 26.81111,26.81111 0 0 1 2.61329,-0.59375 26.81111,26.81111 0 0 1 2.65978,-0.3302 26.81111,26.81111 0 0 1 1.88103,-0.0724 26.81111,26.81111 0 0 1 2.67734,0.12506 26.81111,26.81111 0 0 1 2.65102,0.39222 26.81111,26.81111 0 0 1 2.59879,0.65421 26.81111,26.81111 0 0 1 2.52079,0.91107 26.81111,26.81111 0 0 1 2.41692,1.15808 26.81111,26.81111 0 0 1 2.28925,1.39319 26.81111,26.81111 0 0 1 2.13837,1.61488 26.81111,26.81111 0 0 1 1.96733,1.82057 26.81111,26.81111 0 0 1 1.77509,2.00764 26.81111,26.81111 0 0 1 1.56578,2.17453 26.81111,26.81111 0 0 1 1.34101,2.32079 26.81111,26.81111 0 0 1 1.10279,2.44224 26.81111,26.81111 0 0 1 0.85317,2.54092 26.81111,26.81111 0 0 1 0.59582,2.61276 26.81111,26.81111 0 0 1 0.33126,2.65928 26.81111,26.81111 0 0 0 -0.33126,-2.65928 26.81111,26.81111 0 0 0 -0.59582,-2.61276 26.81111,26.81111 0 0 0 -0.85317,-2.54092 26.81111,26.81111 0 0 0 -1.10279,-2.44224 26.81111,26.81111 0 0 0 -1.34101,-2.32079 26.81111,26.81111 0 0 0 -1.56578,-2.17453 26.81111,26.81111 0 0 0 -1.77509,-2.00764 26.81111,26.81111 0 0 0 -1.96733,-1.82057 26.81111,26.81111 0 0 0 -2.13837,-1.61488 26.81111,26.81111 0 0 0 -2.28925,-1.39319 26.81111,26.81111 0 0 0 -2.41692,-1.15808 26.81111,26.81111 0 0 0 -2.52079,-0.91107 26.81111,26.81111 0 0 0 -2.59879,-0.65421 26.81111,26.81111 0 0 0 -2.65102,-0.39222 26.81111,26.81111 0 0 0 -2.67734,-0.12506 26.81111,26.81111 0 0 0 -1.88103,0.0724 26.81111,26.81111 0 0 0 -2.65978,0.3302 26.81111,26.81111 0 0 0 -2.61329,0.59375 26.81111,26.81111 0 0 0 -2.54092,0.85164 26.81111,26.81111 0 0 0 -2.44324,1.10175 26.81111,26.81111 0 0 0 -2.32133,1.33946 26.81111,26.81111 0 0 0 -2.17556,1.56474 26.81111,26.81111 0 0 0 -2.00866,1.77406 26.81111,26.81111 0 0 0 -1.82161,1.96577 26.81111,26.81111 0 0 0 -1.61591,2.13786 26.81111,26.81111 0 0 0 -1.39475,2.28876 26.81111,26.81111 0 0 0 -1.15962,2.41638 26.81111,26.81111 0 0 0 -0.9121,2.51973 26.81111,26.81111 0 0 0 -0.65577,2.59882 26.81111,26.81111 0 0 0 -0.39325,2.65099 26.81111,26.81111 0 0 0 -0.12713,2.67685 26.81111,26.81111 0 0 0 0.0713,1.88153 26.81111,26.81111 0 0 0 0.32866,2.65978 26.81111,26.81111 0 0 0 0.59222,2.61328 26.81111,26.81111 0 0 0 0.85058,2.54146 26.81111,26.81111 0 0 0 1.10019,2.4443 26.81111,26.81111 0 0 0 1.33842,2.3218 26.81111,26.81111 0 0 0 1.56321,2.17662 26.81111,26.81111 0 0 0 1.77303,2.00969 26.81111,26.81111 0 0 0 1.96527,1.82264 26.81111,26.81111 0 0 0 2.1368,1.61695 26.81111,26.81111 0 0 0 2.28772,1.39631 26.81111,26.81111 0 0 0 2.41536,1.16012 26.81111,26.81111 0 0 0 2.51976,0.91363 26.81111,26.81111 0 0 0 2.59828,0.65786 26.81111,26.81111 0 0 0 2.65047,0.39481 26.81111,26.81111 0 0 0 2.67684,0.12814 26.81111,26.81111 0 0 0 1.88156,-0.0703 26.81111,26.81111 0 0 0 2.65978,-0.32711 26.81111,26.81111 0 0 0 2.61432,-0.59065 26.81111,26.81111 0 0 0 2.54195,-0.84958 26.81111,26.81111 0 0 0 2.4443,-1.09813 26.81111,26.81111 0 0 0 2.32286,-1.33739 26.81111,26.81111 0 0 0 2.17712,-1.56218 26.81111,26.81111 0 0 0 2.01073,-1.77196 26.81111,26.81111 0 0 0 1.82367,-1.96371 26.81111,26.81111 0 0 0 1.61848,-2.1363 26.81111,26.81111 0 0 0 1.39735,-2.28669 26.81111,26.81111 0 0 0 1.1622,-2.41536 26.81111,26.81111 0 0 0 0.91467,-2.5187 26.81111,26.81111 0 0 0 0.65886,-2.59778 26.81111,26.81111 0 0 0 0.39638,-2.65049 26.81111,26.81111 0 0 1 -0.39638,2.65049 26.81111,26.81111 0 0 1 -0.65886,2.59778 26.81111,26.81111 0 0 1 -0.91467,2.5187 26.81111,26.81111 0 0 1 -1.1622,2.41536 26.81111,26.81111 0 0 1 -1.39735,2.28669 26.81111,26.81111 0 0 1 -1.61848,2.1363 26.81111,26.81111 0 0 1 -1.82367,1.96371 26.81111,26.81111 0 0 1 -2.01073,1.77196 26.81111,26.81111 0 0 1 -2.17712,1.56218 26.81111,26.81111 0 0 1 -2.32286,1.33739 26.81111,26.81111 0 0 1 -2.4443,1.09813 26.81111,26.81111 0 0 1 -2.54195,0.84958 26.81111,26.81111 0 0 1 -2.61432,0.59065 26.81111,26.81111 0 0 1 -2.65978,0.32711 26.81111,26.81111 0 0 1 -1.88156,0.0703 h 26.75446 v -91.61455 z"
       id="rect5208" />
    <g
       id="g10029"
       transform="translate(1.4836216e-6,33.303632)">
      <g
         transform="translate(-3.6983426,-6.1562547e-4)"
         id="g10002">
        <path
           sodipodi:open="true"
           d="M 133.69823,115.15771 A 24.999958,25 0 0 1 108.75154,140.19693 24.999958,25 0 0 1 83.698435,115.26418 24.999958,25 0 0 1 108.61715,90.197115 24.999958,25 0 0 1 133.69808,115.10186"
           sodipodi:end="6.2793805"
           sodipodi:start="6.2816145"
           sodipodi:ry="25"
           sodipodi:rx="24.999958"
           sodipodi:cy="115.19698"
           sodipodi:cx="108.6983"
           sodipodi:type="arc"
           id="path5134"
           style="opacity:1;fill:#828282;fill-opacity:1;stroke:none;stroke-width:2.10526133;stroke-linecap:round;stroke-linejoin:round;stroke-miterlimit:4;stroke-dasharray:none;stroke-dashoffset:0;stroke-opacity:1" />
        <path
           inkscape:connector-curvature="0"
           style="opacity:1;fill:#4b4b4b;fill-opacity:0.75607844;stroke:none;stroke-width:1.66946352;stroke-linecap:round;stroke-linejoin:round;stroke-miterlimit:4;stroke-dasharray:none;stroke-dashoffset:0;stroke-opacity:1"
           d="m 90.938436,97.627116 a 24.999957,24.999999 0 0 0 -3.410081,4.328034 c 0.328007,0.17894 0.704507,0.28044 1.105848,0.28044 h 2.801522 c 0.625735,0 1.129471,0.50372 1.129471,1.12947 0,0.62575 -0.503736,1.12947 -1.129471,1.12947 h 5.828042 c -0.625735,0 -1.129471,-0.50372 -1.129471,-1.12947 0,-0.62575 0.503736,-1.12947 1.129471,-1.12947 h 4.563653 c 1.2766,0 2.30473,-1.02762 2.30473,-2.304237 0,-1.276619 -1.02813,-2.304237 -2.30473,-2.304237 z m -4.799279,6.867904 a 24.999957,24.999999 0 0 0 -1.981378,5.97261 c 0.04505,0.002 0.08933,0.007 0.1349,0.007 h 8.135202 c -0.03013,0 -0.0595,0.003 -0.08916,0.004 0.868735,0.0463 1.554945,0.75861 1.554945,1.63927 0,0.88068 -0.68621,1.59349 -1.554945,1.63977 0.02966,0.002 0.05903,0.004 0.08916,0.004 h 0.079 c -1.163946,0 -2.100891,0.93693 -2.100891,2.10089 0,1.16395 0.936945,2.10138 2.100891,2.10138 h 1.740944 c -0.0063,5.2e-4 -0.0129,0.001 -0.01921,0.001 v 5.2e-4 c 0.600525,0.0156 1.079814,0.5029 1.079814,1.10731 0,0.60442 -0.479289,1.09173 -1.079814,1.10731 0.0095,2.1e-4 0.01868,0.002 0.02892,0.002 h -4.960729 c -0.93763,0 -1.692265,0.75465 -1.692265,1.69229 0,0.93762 0.754635,1.69275 1.692265,1.69276 h 12.606324 c 0.9376,-1e-5 1.69228,-0.75514 1.69228,-1.69276 0,-0.93764 -0.75468,-1.69229 -1.69228,-1.69229 h -0.87553 c 0.0197,0 0.0388,-0.002 0.0583,-0.003 -0.58676,-0.0304 -1.05044,-0.51129 -1.05044,-1.10586 0,-0.59458 0.46368,-1.07597 1.05044,-1.10634 -0.0163,-0.001 -0.0323,-0.002 -0.0487,-0.002 h 12.47958 c 1.16397,0 2.10089,-0.93743 2.10089,-2.10138 0,-1.16396 -0.93692,-2.10089 -2.10089,-2.10089 H 99.12137 c -0.910815,0 -1.644077,-0.73333 -1.644077,-1.6441 0,-0.91077 0.733262,-1.64361 1.644077,-1.64361 h 2.5895 c 1.65628,0 2.98944,-1.33365 2.98944,-2.98992 0,-1.65627 -1.33316,-2.98944 -2.98944,-2.98944 z"
           id="rect4395" />
        <path
           inkscape:connector-curvature="0"
           style="opacity:1;fill:#4b4b4b;fill-opacity:0.75607844;stroke:none;stroke-width:2.10526133;stroke-linecap:round;stroke-linejoin:round;stroke-miterlimit:4;stroke-dasharray:none;stroke-dashoffset:0;stroke-opacity:1"
           d="m 112.39693,95.950253 c -1.44455,0 -2.60732,1.162757 -2.60732,2.607326 0,1.444571 1.16277,2.607331 2.60732,2.607331 h 3.06749 c -0.028,0 -0.0554,0.002 -0.0829,0.004 0.58044,0.0423 1.03552,0.52247 1.03552,1.11405 0,0.59158 -0.45508,1.07222 -1.03552,1.11453 0.0275,0.002 0.0549,0.004 0.0829,0.004 h -3.06605 c -0.94039,0 -1.69757,0.75719 -1.69757,1.69758 0,0.9404 0.75718,1.69758 1.69757,1.69758 h 12.9253 c 0.94039,0 1.6971,-0.75718 1.6971,-1.69758 -3e-5,-0.94039 -0.75671,-1.69758 -1.6971,-1.69758 h -4.67544 c -0.61958,0 -1.11839,-0.4988 -1.11839,-1.11839 0,-0.61958 0.49881,-1.11839 1.11839,-1.11839 h -0.21105 c 1.44455,0 2.60731,-1.16275 2.60731,-2.607322 0,-1.444568 -1.16276,-2.607326 -2.60731,-2.607326 z"
           id="path5234" />
        <path
           inkscape:connector-curvature="0"
           style="opacity:1;fill:#4b4b4b;fill-opacity:0.75607844;stroke:none;stroke-width:1.19864452;stroke-linecap:round;stroke-linejoin:round;stroke-miterlimit:4;stroke-dasharray:none;stroke-dashoffset:0;stroke-opacity:1"
           d="m 93.455169,129.84597 c -1.408656,0 -2.542733,1.13409 -2.542733,2.54275 0,0.13602 0.01395,0.26838 0.03418,0.3985 a 24.999957,24.999999 0 0 0 2.447364,2.14089 c 0.02053,5.2e-4 0.04053,0.003 0.06118,0.003 h 4.184466 c -0.03582,0 -0.07058,0.003 -0.105552,0.006 0.59563,0.0532 1.059603,0.54991 1.059603,1.15982 0,0.60992 -0.463973,1.10665 -1.059603,1.15983 0.03495,0.003 0.06974,0.005 0.105552,0.005 h 4.449914 c 0.0402,0 0.0799,-0.002 0.11902,-0.006 -0.58913,-0.0595 -1.0461,-0.55407 -1.04612,-1.15935 0,-0.60528 0.45699,-1.09988 1.04612,-1.15935 -0.0391,-0.004 -0.0789,-0.006 -0.11902,-0.006 h 1.32463 c 1.40865,0 2.54226,-1.13362 2.54226,-2.54228 0,-1.40866 -1.13361,-2.54275 -2.54226,-2.54275 z m 3.51273,7.41625 a 24.999957,24.999999 0 0 0 7.821961,2.59672 c 0.26289,-0.27543 0.425,-0.64796 0.425,-1.06056 0,-0.85107 -0.6851,-1.53616 -1.53616,-1.53616 z"
           id="rect5150" />
        <path
           inkscape:connector-curvature="0"
           style="opacity:1;fill:#4b4b4b;fill-opacity:0.75607844;stroke:none;stroke-width:1.97368252;stroke-linecap:round;stroke-linejoin:round;stroke-miterlimit:4;stroke-dasharray:none;stroke-dashoffset:0;stroke-opacity:1"
           d="m 125.39401,112.84366 c -1.40095,0 -2.52876,1.12784 -2.52876,2.52878 0,1.40095 1.12781,2.52879 2.52876,2.52879 h 8.14625 a 24.999957,24.999999 0 0 0 0.15808,-2.74369 v -0.0559 a 24.999957,24.999999 0 0 0 -0.13061,-2.25798 z"
           id="rect5196" />
        <path
           inkscape:connector-curvature="0"
           style="opacity:1;fill:#4b4b4b;fill-opacity:0.75607844;stroke:none;stroke-width:2.10526133;stroke-linecap:round;stroke-linejoin:round;stroke-miterlimit:4;stroke-dasharray:none;stroke-dashoffset:0;stroke-opacity:1"
           d="m 117.83707,122.04567 c -1.70905,0 -3.08483,1.3758 -3.08483,3.08485 0,1.70905 1.37578,3.08484 3.08483,3.08484 h -0.52331 c -0.007,0 -0.0132,0.001 -0.0197,0.002 0.89598,0.0108 1.61471,0.73439 1.61471,1.63301 0,0.89864 -0.71873,1.62268 -1.61471,1.6335 0.007,8e-5 0.0132,0.001 0.0197,0.001 h -5.17173 c -0.92029,0 -1.66097,0.7407 -1.66097,1.66096 0,0.92026 0.74068,1.66096 1.66097,1.66096 h 9.9667 c 0.92026,0 1.66094,-0.7407 1.66094,-1.66096 0,-0.92026 -0.74068,-1.66096 -1.66094,-1.66096 h -0.17685 c 0.10682,0 0.21124,-0.011 0.31224,-0.0304 -0.75492,-0.14502 -1.32173,-0.8056 -1.32173,-1.6041 0,-0.79849 0.56681,-1.45906 1.32173,-1.6041 -0.101,-0.0194 -0.20542,-0.0303 -0.31224,-0.0303 h 2.07534 c 1.70908,0 3.08484,-1.3758 3.08484,-3.08485 0,-1.70905 -1.37576,-3.08484 -3.08484,-3.08484 z"
           id="path5244" />
        <path
           d="m -90.197014,108.65903 a 25,24.999958 0 0 1 -12.477306,21.67677 25,24.999958 0 0 1 -25.01133,0.0196 25,24.999958 0 0 1 -12.51133,-21.65714"
           sodipodi:end="3.1415927"
           sodipodi:start="6.2816145"
           sodipodi:ry="24.999958"
           sodipodi:rx="25"
           sodipodi:cy="108.6983"
           sodipodi:cx="-115.19698"
           sodipodi:type="arc"
           id="path5366"
           style="opacity:0.25;fill:#000000;fill-opacity:1;stroke:none;stroke-width:2.10526133;stroke-linecap:round;stroke-linejoin:round;stroke-miterlimit:4;stroke-dasharray:none;stroke-dashoffset:0;stroke-opacity:1"
           sodipodi:open="true"
           transform="rotate(-90)" />
      </g>
      <path
         inkscape:connector-curvature="0"
         id="path9987"
         d="m 127.93318,105.31182 a 24.999957,24.999999 0 0 1 2.06706,9.78958 l -4e-5,0.0558 a 24.999957,24.999999 0 0 1 -6.2e-4,0.006 24.999999,7.5 0 0 1 1e-5,10e-4 24.999957,24.999999 0 0 1 0,0.001 24.999999,7.5 0 0 1 4.5e-4,0.002 24.999999,7.5 0 0 1 -1e-5,0.001 l -2e-5,0.0155 a 24.999999,7.5 0 0 1 -1e-5,0.001 24.999999,7.5 0 0 1 -24.94678,7.51168 24.999999,7.5 0 0 1 -25.052741,-7.4755 24.999999,7.5 0 0 1 -5.1e-4,-0.004 24.999999,7.5 0 0 1 -10e-7,-0.001 24.999999,7.5 0 0 1 0.0031,-0.0202 24.999957,24.999999 0 0 1 2.035536,-9.86297 37.499999,12.499999 0 0 0 -14.538649,9.89707 l 1.388546,-0.001 -1.388546,0.002 a 37.499999,12.499999 0 0 0 37.580135,12.46642 37.499999,12.499999 0 0 0 37.41993,-12.51965 v -10e-4 l -3e-5,-0.0269 v -10e-4 a 37.499999,12.499999 0 0 0 -14.56707,-9.83661 z"
         style="opacity:1;fill:url(#linearGradient10018);fill-opacity:1;stroke:none;stroke-width:2.69174695;stroke-linecap:round;stroke-linejoin:round;stroke-miterlimit:4;stroke-dasharray:none;stroke-dashoffset:0;stroke-opacity:1" />
    </g>
  </g>
</svg>
